<svg width="29" height="29" viewBox="0 0 29 29" fill="none" xmlns="http://www.w3.org/2000/svg">
<circle cx="14.5" cy="14.5" r="14.5" fill="#662D91"/>
<circle cx="22.5" cy="25.5" r="3" fill="#138E3D" stroke="white"/>
<path d="M11.917 14.073C12.3277 14.1463 12.676 14.3627 12.962 14.722C13.248 15.0813 13.391 15.4883 13.391 15.943C13.391 16.3317 13.2883 16.6837 13.083 16.999C12.885 17.307 12.5953 17.5527 12.214 17.736C11.8327 17.912 11.389 18 10.883 18H7.825V10.355H10.74C11.2607 10.355 11.708 10.443 12.082 10.619C12.456 10.795 12.7383 11.0333 12.929 11.334C13.1197 11.6273 13.215 11.9573 13.215 12.324C13.215 12.764 13.0977 13.1307 12.863 13.424C12.6283 13.7173 12.313 13.9337 11.917 14.073ZM9.079 13.567H10.63C11.0407 13.567 11.3597 13.4753 11.587 13.292C11.8217 13.1013 11.939 12.83 11.939 12.478C11.939 12.1333 11.8217 11.8657 11.587 11.675C11.3597 11.477 11.0407 11.378 10.63 11.378H9.079V13.567ZM10.773 16.977C11.1983 16.977 11.532 16.8743 11.774 16.669C12.016 16.4637 12.137 16.1777 12.137 15.811C12.137 15.437 12.0087 15.14 11.752 14.92C11.4953 14.7 11.1543 14.59 10.729 14.59H9.079V16.977H10.773ZM21.0347 18H19.7807L16.0077 12.291V18H14.7537V10.344H16.0077L19.7807 16.042V10.344H21.0347V18Z" fill="white"/>
</svg>
