<svg width="30" height="30" viewBox="0 0 30 30" fill="none" xmlns="http://www.w3.org/2000/svg">
<path d="M21.25 11.25L14.4571 18.0429C14.2096 18.2904 14.0858 18.4142 13.9431 18.4605C13.8176 18.5013 13.6824 18.5013 13.5569 18.4605C13.4142 18.4142 13.2904 18.2904 13.0429 18.0429L10.7071 15.7071C10.4596 15.4596 10.3358 15.3358 10.1931 15.2895C10.0676 15.2487 9.93239 15.2487 9.80686 15.2895C9.66416 15.3358 9.5404 15.4596 9.29289 15.7071L3.75 21.25M21.25 11.25H16.25M21.25 11.25V16.25M9.75 26.25H20.25C22.3502 26.25 23.4003 26.25 24.2025 25.8413C24.9081 25.4817 25.4817 24.9081 25.8413 24.2025C26.25 23.4003 26.25 22.3502 26.25 20.25V9.75C26.25 7.6498 26.25 6.5997 25.8413 5.79754C25.4817 5.09193 24.9081 4.51825 24.2025 4.15873C23.4003 3.75 22.3502 3.75 20.25 3.75H9.75C7.6498 3.75 6.5997 3.75 5.79754 4.15873C5.09193 4.51825 4.51825 5.09193 4.15873 5.79754C3.75 6.5997 3.75 7.6498 3.75 9.75V20.25C3.75 22.3502 3.75 23.4003 4.15873 24.2025C4.51825 24.9081 5.09193 25.4817 5.79754 25.8413C6.5997 26.25 7.6498 26.25 9.75 26.25Z" stroke="#222222" stroke-width="2" stroke-linecap="round" stroke-linejoin="round"/>
</svg>
