<svg width="171" height="171" viewBox="0 0 171 171" fill="none" xmlns="http://www.w3.org/2000/svg">
<path d="M117.358 6.15702C103.629 0.644396 88.7042 -1.21138 74.043 0.771098C59.3818 2.75358 45.4859 8.50647 33.7138 17.4674C21.9417 26.4283 12.6962 38.2905 6.8812 51.8944C1.06621 65.4984 -1.11928 80.3784 0.538382 95.0798C2.19604 109.781 7.64013 123.801 16.3384 135.769C25.0367 147.736 36.6915 157.242 50.1635 163.356C63.6354 169.471 78.4635 171.985 93.198 170.653C107.933 169.321 122.069 164.188 134.226 155.757L109.829 120.579C103.759 124.789 96.7006 127.352 89.3436 128.017C81.9866 128.682 74.583 127.427 67.8565 124.374C61.1299 121.321 55.3106 116.574 50.9676 110.599C46.6245 104.624 43.9063 97.6237 43.0786 90.2832C42.251 82.9428 43.3422 75.5132 46.2456 68.7207C49.149 61.9283 53.7653 56.0055 59.6431 51.5313C65.5209 47.0571 72.4592 44.1847 79.7795 43.1948C87.0998 42.205 94.5518 43.1316 101.407 45.884L117.358 6.15702Z" fill="#662D91"/>
<path d="M134.542 155.537C147.173 146.692 157.178 134.595 163.495 120.528C169.813 106.461 172.209 90.947 170.428 75.6294C168.648 60.3118 162.758 45.7609 153.383 33.5176C144.007 21.2744 131.495 11.7946 117.172 6.08236L101.479 45.4312C108.706 48.3132 115.019 53.0961 119.749 59.2732C124.479 65.4503 127.451 72.7917 128.349 80.52C129.247 88.2482 128.039 96.0754 124.851 103.173C121.664 110.27 116.616 116.373 110.243 120.836L134.542 155.537Z" fill="#00CDA6"/>
</svg>
