<svg width="25" height="25" viewBox="0 0 25 25" fill="none" xmlns="http://www.w3.org/2000/svg">
<path d="M14.7095 12.5002L24.5424 2.66834C25.1528 2.05796 25.1528 1.06835 24.5424 0.458026C23.9321 -0.15235 22.9425 -0.15235 22.3321 0.458026L12.5002 10.2909L2.66834 0.458026C2.05796 -0.15235 1.06835 -0.15235 0.458026 0.458026C-0.152301 1.0684 -0.15235 2.05801 0.458026 2.66834L10.2909 12.5002L0.458026 22.3321C-0.15235 22.9425 -0.15235 23.9321 0.458026 24.5424C1.0684 25.1528 2.05801 25.1528 2.66834 24.5424L12.5002 14.7095L22.3321 24.5424C22.9425 25.1528 23.9321 25.1528 24.5424 24.5424C25.1528 23.9321 25.1528 22.9425 24.5424 22.3321L14.7095 12.5002Z" fill="white"/>
</svg>
