<svg width="21" height="18" viewBox="0 0 21 18" fill="none" xmlns="http://www.w3.org/2000/svg">
<path d="M10.5 6.87499V10.375M10.5 13.875H10.5088M9.28843 2.40525L2.09166 14.836C1.69248 15.5255 1.49289 15.8703 1.52239 16.1532C1.54812 16.4 1.67742 16.6243 1.8781 16.7702C2.10819 16.9375 2.50655 16.9375 3.30326 16.9375H17.6968C18.4935 16.9375 18.8919 16.9375 19.122 16.7702C19.3226 16.6243 19.4519 16.4 19.4777 16.1532C19.5072 15.8703 19.3076 15.5255 18.9084 14.836L11.7116 2.40524C11.3139 1.71823 11.115 1.37472 10.8555 1.25935C10.6292 1.15871 10.3708 1.15871 10.1445 1.25935C9.88505 1.37472 9.68618 1.71823 9.28843 2.40525Z" stroke="#E83800" stroke-width="2" stroke-linecap="round" stroke-linejoin="round"/>
</svg>
