<svg width="27" height="27" viewBox="0 0 27 27" fill="none" xmlns="http://www.w3.org/2000/svg">
<path d="M16.2103 13.3961C16.2103 13.9488 16.0464 14.4891 15.7393 14.9487C15.4322 15.4082 14.9958 15.7664 14.4851 15.9779C13.9745 16.1895 13.4126 16.2448 12.8705 16.137C12.3284 16.0291 11.8304 15.763 11.4396 15.3722C11.0488 14.9813 10.7826 14.4834 10.6748 13.9413C10.567 13.3992 10.6223 12.8373 10.8338 12.3266C11.0453 11.816 11.4035 11.3795 11.8631 11.0725C12.3227 10.7654 12.863 10.6015 13.4157 10.6015C14.1569 10.6015 14.8677 10.8959 15.3918 11.42C15.9159 11.9441 16.2103 12.6549 16.2103 13.3961ZM13.4157 8.20612C13.9684 8.20612 14.5087 8.04222 14.9683 7.73514C15.4278 7.42807 15.786 6.99161 15.9976 6.48097C16.2091 5.97032 16.2644 5.40842 16.1566 4.86632C16.0488 4.32423 15.7826 3.82628 15.3918 3.43545C15.0009 3.04462 14.503 2.77846 13.9609 2.67063C13.4188 2.5628 12.8569 2.61814 12.3462 2.82966C11.8356 3.04117 11.3991 3.39936 11.0921 3.85893C10.785 4.3185 10.6211 4.8588 10.6211 5.41152C10.6211 6.15269 10.9155 6.86351 11.4396 7.3876C11.9637 7.91169 12.6745 8.20612 13.4157 8.20612ZM13.4157 18.586C12.863 18.586 12.3227 18.7499 11.8631 19.057C11.4035 19.3641 11.0453 19.8005 10.8338 20.3112C10.6223 20.8218 10.567 21.3837 10.6748 21.9258C10.7826 22.4679 11.0488 22.9659 11.4396 23.3567C11.8304 23.7475 12.3284 24.0137 12.8705 24.1215C13.4126 24.2294 13.9745 24.174 14.4851 23.9625C14.9958 23.751 15.4322 23.3928 15.7393 22.9332C16.0464 22.4736 16.2103 21.9333 16.2103 21.3806C16.2103 20.6395 15.9159 19.9286 15.3918 19.4046C14.8677 18.8805 14.1569 18.586 13.4157 18.586Z" fill="#A8A8BD"/>
</svg>
