<svg width="20" height="20" viewBox="0 0 20 20" fill="none" xmlns="http://www.w3.org/2000/svg">
<g clip-path="url(#clip0_779_6)">
<path d="M1.66667 17.5V2.5C1.66667 2.27899 1.75446 2.06702 1.91074 1.91074C2.06702 1.75446 2.27899 1.66667 2.5 1.66667H6.66667V0H2.5C1.83696 0 1.20107 0.263392 0.732233 0.732233C0.263392 1.20107 0 1.83696 0 2.5L0 17.5C0 18.163 0.263392 18.7989 0.732233 19.2678C1.20107 19.7366 1.83696 20 2.5 20H6.66667V18.3333H2.5C2.27899 18.3333 2.06702 18.2455 1.91074 18.0893C1.75446 17.933 1.66667 17.721 1.66667 17.5Z" fill="#222224"/>
<path d="M19.2691 8.23249L15.4475 4.41083L14.2691 5.58916L17.8225 9.14249L4.16663 9.16666V10.8333L17.8691 10.8092L14.2675 14.4108L15.4458 15.5892L19.2675 11.7675C19.7364 11.2989 19.9999 10.6632 20.0003 10.0003C20.0006 9.33743 19.7376 8.70153 19.2691 8.23249Z" fill="#222224"/>
</g>
<defs>
<clipPath id="clip0_779_6">
<rect width="20" height="20" fill="white"/>
</clipPath>
</defs>
</svg>
