<svg width="30" height="30" viewBox="0 0 30 30" fill="none" xmlns="http://www.w3.org/2000/svg">
<path d="M15 8.75H9.375C8.5462 8.75 7.75134 8.42076 7.16529 7.83471C6.57924 7.24866 6.25 6.4538 6.25 5.625C6.25 4.7962 6.57924 4.00134 7.16529 3.41529C7.75134 2.82924 8.5462 2.5 9.375 2.5C13.75 2.5 15 8.75 15 8.75ZM15 8.75H20.625C21.4538 8.75 22.2487 8.42076 22.8347 7.83471C23.4208 7.24866 23.75 6.4538 23.75 5.625C23.75 4.7962 23.4208 4.00134 22.8347 3.41529C22.2487 2.82924 21.4538 2.5 20.625 2.5C16.25 2.5 15 8.75 15 8.75ZM15 8.75L15 27.5M2.5 17.5H27.5M2.5 12.75L2.5 23.5C2.5 24.9001 2.5 25.6002 2.77248 26.135C3.01217 26.6054 3.39462 26.9878 3.86502 27.2275C4.3998 27.5 5.09987 27.5 6.5 27.5L23.5 27.5C24.9001 27.5 25.6002 27.5 26.135 27.2275C26.6054 26.9878 26.9878 26.6054 27.2275 26.135C27.5 25.6002 27.5 24.9001 27.5 23.5V12.75C27.5 11.3499 27.5 10.6498 27.2275 10.115C26.9878 9.64462 26.6054 9.26217 26.135 9.02249C25.6002 8.75 24.9001 8.75 23.5 8.75L6.5 8.75C5.09987 8.75 4.3998 8.75 3.86502 9.02248C3.39462 9.26217 3.01217 9.64462 2.77248 10.115C2.5 10.6498 2.5 11.3499 2.5 12.75Z" stroke="#222222" stroke-width="1.6" stroke-linecap="round" stroke-linejoin="round"/>
</svg>
