<svg width="65" height="60" viewBox="0 0 65 60" fill="none" xmlns="http://www.w3.org/2000/svg">
<rect width="65" height="60" rx="10" fill="white"/>
<path d="M33 20C34.3132 20 35.6136 20.2587 36.8268 20.7612C38.0401 21.2638 39.1425 22.0003 40.0711 22.9289C40.9997 23.8575 41.7363 24.9599 42.2388 26.1732C42.7413 27.3864 43 28.6868 43 30M33 20V30M33 20C27.4772 20 23 24.4772 23 30C23 35.5228 27.4772 40 33 40C38.5228 40 43 35.5229 43 30M33 20C38.5228 20 43 24.4772 43 30M43 30L33 30M43 30C43 31.5781 42.6265 33.1338 41.9101 34.5399C41.1936 35.946 40.1546 37.1626 38.8779 38.0902L33 30" stroke="#222222" stroke-width="2" stroke-linecap="round" stroke-linejoin="round"/>
</svg>
