<svg width="32" height="32" viewBox="0 0 32 32" fill="none" xmlns="http://www.w3.org/2000/svg">
<path d="M1 15.9115L15.4633 23.1431C15.6601 23.2415 15.7585 23.2907 15.8617 23.3101C15.9531 23.3272 16.0469 23.3272 16.1383 23.3101C16.2415 23.2907 16.3399 23.2415 16.5367 23.1431L31 15.9115M1 23.4115L15.4633 30.6431C15.6601 30.7415 15.7585 30.7907 15.8617 30.8101C15.9531 30.8272 16.0469 30.8272 16.1383 30.8101C16.2415 30.7907 16.3399 30.7415 16.5367 30.6431L31 23.4115M1 8.41147L15.4633 1.1798C15.6601 1.08142 15.7585 1.03222 15.8617 1.01286C15.9531 0.995713 16.0469 0.995713 16.1383 1.01286C16.2415 1.03222 16.3399 1.08142 16.5367 1.1798L31 8.41147L16.5367 15.6431C16.3399 15.7415 16.2415 15.7907 16.1383 15.8101C16.0469 15.8272 15.9531 15.8272 15.8617 15.8101C15.7585 15.7907 15.6601 15.7415 15.4633 15.6431L1 8.41147Z" stroke="#222222" stroke-width="2" stroke-linecap="round" stroke-linejoin="round"/>
</svg>
