<svg width="21" height="21" viewBox="0 0 21 21" fill="none" xmlns="http://www.w3.org/2000/svg">
<g clip-path="url(#clip0_381_6807)">
<path d="M15.75 8.75L12.745 11.755C12.5717 11.9283 12.4851 12.0149 12.3852 12.0474C12.2973 12.0759 12.2027 12.0759 12.1148 12.0474C12.0149 12.0149 11.9283 11.9283 11.755 11.755L9.24497 9.24497C9.07172 9.07172 8.98509 8.98509 8.8852 8.95263C8.79733 8.92408 8.70267 8.92408 8.6148 8.95263C8.51491 8.98509 8.42828 9.07172 8.25503 9.24497L5.25 12.25M19.25 10.5C19.25 15.3325 15.3325 19.25 10.5 19.25C5.66751 19.25 1.75 15.3325 1.75 10.5C1.75 5.66751 5.66751 1.75 10.5 1.75C15.3325 1.75 19.25 5.66751 19.25 10.5Z" stroke="#A6A299" stroke-width="1.6" stroke-linecap="round" stroke-linejoin="round"/>
</g>
<defs>
<clipPath id="clip0_381_6807">
<rect width="21" height="21" fill="white"/>
</clipPath>
</defs>
</svg>
