<svg width="19" height="19" viewBox="0 0 19 19" fill="none" xmlns="http://www.w3.org/2000/svg">
<path d="M12.125 17.375V12.65C12.125 12.16 12.125 11.9149 12.0296 11.7278C11.9457 11.5631 11.8119 11.4293 11.6472 11.3454C11.4601 11.25 11.215 11.25 10.725 11.25H8.275C7.78495 11.25 7.53993 11.25 7.35276 11.3454C7.18812 11.4293 7.05426 11.5631 6.97037 11.7278C6.875 11.9149 6.875 12.16 6.875 12.65V17.375M15.625 17.375V4.425C15.625 3.44491 15.625 2.95486 15.4343 2.58052C15.2665 2.25123 14.9988 1.98352 14.6695 1.81574C14.2951 1.625 13.8051 1.625 12.825 1.625H6.175C5.19491 1.625 4.70486 1.625 4.33052 1.81574C4.00123 1.98352 3.73352 2.25123 3.56574 2.58052C3.375 2.95486 3.375 3.44491 3.375 4.425V17.375M17.375 17.375H1.625M7.3125 6H7.32125M11.6875 6H11.6963M7.75 6C7.75 6.24162 7.55412 6.4375 7.3125 6.4375C7.07088 6.4375 6.875 6.24162 6.875 6C6.875 5.75838 7.07088 5.5625 7.3125 5.5625C7.55412 5.5625 7.75 5.75838 7.75 6ZM12.125 6C12.125 6.24162 11.9291 6.4375 11.6875 6.4375C11.4459 6.4375 11.25 6.24162 11.25 6C11.25 5.75838 11.4459 5.5625 11.6875 5.5625C11.9291 5.5625 12.125 5.75838 12.125 6Z" stroke="#222222" stroke-width="1.6" stroke-linecap="round" stroke-linejoin="round"/>
</svg>
