<svg width="21" height="21" viewBox="0 0 21 21" fill="none" xmlns="http://www.w3.org/2000/svg">
<path d="M8.22091 16.9497L8.7323 18.0999C8.88432 18.4422 9.13241 18.7331 9.44649 18.9373C9.76057 19.1414 10.1271 19.2501 10.5017 19.25C10.8763 19.2501 11.2429 19.1414 11.557 18.9373C11.8711 18.7331 12.1192 18.4422 12.2712 18.0999L12.7826 16.9497C12.9646 16.5416 13.2708 16.2014 13.6576 15.9775C14.0468 15.753 14.497 15.6574 14.9438 15.7043L16.1951 15.8375C16.5675 15.8769 16.9434 15.8074 17.2772 15.6374C17.6109 15.4674 17.8882 15.2043 18.0754 14.8799C18.2628 14.5556 18.352 14.184 18.3324 13.81C18.3127 13.4361 18.1849 13.0758 17.9645 12.7731L17.2237 11.7551C16.9599 11.39 16.8189 10.9505 16.8212 10.5C16.8211 10.0508 16.9634 9.61306 17.2276 9.24972L17.9684 8.23181C18.1888 7.92904 18.3166 7.56881 18.3363 7.19484C18.3559 6.82087 18.2666 6.44922 18.0792 6.125C17.8921 5.80058 17.6148 5.53743 17.2811 5.36745C16.9473 5.19747 16.5714 5.12796 16.199 5.16736L14.9477 5.30056C14.5009 5.34748 14.0506 5.25186 13.6615 5.02736C13.2739 4.80222 12.9677 4.46019 12.7865 4.05028L12.2712 2.90014C12.1192 2.55777 11.8711 2.26688 11.557 2.06272C11.2429 1.85857 10.8763 1.74994 10.5017 1.75C10.1271 1.74994 9.76057 1.85857 9.44649 2.06272C9.13241 2.26688 8.88432 2.55777 8.7323 2.90014L8.22091 4.05028C8.03972 4.46019 7.73342 4.80222 7.34591 5.02736C6.95672 5.25186 6.50649 5.34748 6.05966 5.30056L4.80452 5.16736C4.43206 5.12796 4.05616 5.19747 3.72242 5.36745C3.38867 5.53743 3.11141 5.80058 2.92424 6.125C2.73683 6.44922 2.64755 6.82087 2.66722 7.19484C2.6869 7.56881 2.81468 7.92904 3.03507 8.23181L3.77591 9.24972C4.0401 9.61306 4.18238 10.0508 4.18229 10.5C4.18238 10.9492 4.0401 11.3869 3.77591 11.7503L3.03507 12.7682C2.81468 13.071 2.6869 13.4312 2.66722 13.8052C2.64755 14.1791 2.73683 14.5508 2.92424 14.875C3.11159 15.1993 3.38889 15.4623 3.72259 15.6322C4.05629 15.8022 4.43208 15.8718 4.80452 15.8326L6.05577 15.6994C6.5026 15.6525 6.95283 15.7481 7.34202 15.9726C7.73098 16.1971 8.0387 16.5392 8.22091 16.9497Z" stroke="black" stroke-width="1.6" stroke-linecap="round" stroke-linejoin="round"/>
<path d="M10.5002 13.125C11.9499 13.125 13.1252 11.9497 13.1252 10.5C13.1252 9.05025 11.9499 7.875 10.5002 7.875C9.05043 7.875 7.87518 9.05025 7.87518 10.5C7.87518 11.9497 9.05043 13.125 10.5002 13.125Z" stroke="black" stroke-width="1.6" stroke-linecap="round" stroke-linejoin="round"/>
</svg>
