<svg width="21" height="21" viewBox="0 0 21 21" fill="none" xmlns="http://www.w3.org/2000/svg">
<g clip-path="url(#clip0_377_6805)">
<path d="M15.05 12.25C15.2924 12.25 15.4136 12.25 15.5118 12.3038C15.5928 12.3482 15.6682 12.4316 15.7043 12.5166C15.7481 12.6197 15.7371 12.7294 15.715 12.9489C15.6009 14.0864 15.2094 15.1825 14.5703 16.139C13.8011 17.2901 12.7079 18.1873 11.4288 18.7172C10.1497 19.247 8.74224 19.3856 7.38437 19.1155C6.0265 18.8454 4.77922 18.1787 3.80026 17.1997C2.82129 16.2208 2.1546 14.9735 1.88451 13.6156C1.61441 12.2578 1.75303 10.8503 2.28285 9.57121C2.81266 8.29213 3.70987 7.19888 4.86101 6.42971C5.81749 5.79061 6.9136 5.3991 8.05115 5.28496C8.27056 5.26295 8.38027 5.25194 8.48337 5.29569C8.56843 5.33177 8.65179 5.40719 8.69619 5.48821C8.75 5.58644 8.75 5.70762 8.75 5.95V11.55C8.75 11.795 8.75 11.9175 8.79769 12.0111C8.83963 12.0934 8.90656 12.1604 8.98888 12.2023C9.08247 12.25 9.20498 12.25 9.45 12.25H15.05Z" stroke="#222222" stroke-width="1.6" stroke-linecap="round" stroke-linejoin="round"/>
<path d="M12.25 2.45C12.25 2.20762 12.25 2.08643 12.3038 1.98821C12.3482 1.90718 12.4316 1.83176 12.5166 1.79568C12.6197 1.75193 12.7294 1.76294 12.9489 1.78495C14.5487 1.94542 16.0528 2.65326 17.1998 3.80025C18.3467 4.94724 19.0546 6.45128 19.2151 8.05114C19.2371 8.27056 19.2481 8.38027 19.2043 8.48337C19.1682 8.56843 19.0928 8.65178 19.0118 8.69618C18.9136 8.74999 18.7924 8.75 18.55 8.75L12.95 8.75C12.705 8.75 12.5825 8.75 12.4889 8.70231C12.4066 8.66037 12.3396 8.59344 12.2977 8.51112C12.25 8.41753 12.25 8.29502 12.25 8.05V2.45Z" stroke="#222222" stroke-width="1.6" stroke-linecap="round" stroke-linejoin="round"/>
</g>
<defs>
<clipPath id="clip0_377_6805">
<rect width="21" height="21" fill="white"/>
</clipPath>
</defs>
</svg>
