<svg width="30" height="30" viewBox="0 0 30 30" fill="none" xmlns="http://www.w3.org/2000/svg">
<path d="M20 10V5.62582C20 4.58614 20 4.06631 19.781 3.74684C19.5896 3.46773 19.2933 3.27812 18.9597 3.22135C18.5779 3.15637 18.1059 3.37421 17.1619 3.8099L6.07377 8.92749C5.23188 9.31605 4.81094 9.51033 4.50263 9.81165C4.23007 10.078 4.02202 10.4032 3.89438 10.7623C3.75 11.1685 3.75 11.6321 3.75 12.5593V18.75M20.625 18.125H20.6375M3.75 14L3.75 22.25C3.75 23.6501 3.75 24.3502 4.02248 24.885C4.26217 25.3554 4.64462 25.7378 5.11502 25.9775C5.6498 26.25 6.34987 26.25 7.75 26.25H22.25C23.6501 26.25 24.3502 26.25 24.885 25.9775C25.3554 25.7378 25.7378 25.3554 25.9775 24.885C26.25 24.3502 26.25 23.6501 26.25 22.25V14C26.25 12.5999 26.25 11.8998 25.9775 11.365C25.7378 10.8946 25.3554 10.5122 24.885 10.2725C24.3502 10 23.6501 10 22.25 10L7.75 10C6.34987 10 5.6498 10 5.11502 10.2725C4.64462 10.5122 4.26217 10.8946 4.02248 11.365C3.75 11.8998 3.75 12.5999 3.75 14ZM21.25 18.125C21.25 18.4702 20.9702 18.75 20.625 18.75C20.2798 18.75 20 18.4702 20 18.125C20 17.7798 20.2798 17.5 20.625 17.5C20.9702 17.5 21.25 17.7798 21.25 18.125Z" stroke="#222222" stroke-width="2" stroke-linecap="round" stroke-linejoin="round"/>
</svg>
